<?xml version="1.0" encoding="utf-8"?>
<svg width="190px" height="31px" viewBox="1 15 190 31" xmlns="http://www.w3.org/2000/svg">
  <g fill-rule="evenodd" clip-rule="evenodd">
    <path d="M182.949 17.834h5.065v8.148h1.908v3.67h-1.908v3.89h-3.743v-3.89h-6.533v-3.67l5.211-8.148zM167.977 23.853c.805-.765 2.016-1.139 3.008-1.1 3.035.115 4.754 2.207 4.697 5.211-.098 3.514-1.969 5.693-5.65 5.798-3.695.094-6.359-3.452-6.238-7.12.166-4.962 3.314-8.64 7.266-9.174 1.113-.105 2.082-.061 2.936.146v2.862c-2.75-.559-4.863.299-6.019 3.377zM166.801 41.762c.02.636-.199 1.187-.66 1.615a2.091 2.091 0 0 1-1.615.66 2.15 2.15 0 0 1-1.613-.66c-.43-.428-.648-.979-.66-1.615.012-.619.23-1.147.66-1.615a2.29 2.29 0 0 1 1.613-.66 2.227 2.227 0 0 1 1.615.66c.461.468.679.996.66 1.615zM149.186 23.339h2.863c4.709.035 8.584 3.667 8.588 8.073v3.964c-.004 4.445-3.879 8.079-8.588 8.073h-2.863c-4.691.006-8.545-3.628-8.514-8.073v-3.964c-.031-4.405 3.822-8.037 8.514-8.073z" style="fill: rgb(255, 255, 255);"/>
    <path d="M 25.954 23.487 L 33.294 23.487 L 33.294 43.45 L 25.954 43.45 L 25.954 23.487 Z M 130.029 23.487 C 134.365 23.507 138.285 27.051 138.324 33.615 C 138.349 39.668 134.959 43.477 130.176 43.45 C 126.637 43.477 123.092 43.477 119.533 43.45 L 119.533 23.487 C 123.047 23.506 126.525 23.506 130.029 23.487 Z M 16.119 23.487 L 21.771 23.487 L 21.771 43.45 C 19.096 43.477 16.387 43.477 13.697 43.45 L 8.486 31.267 L 8.486 43.45 L 2.834 43.45 L 2.834 23.487 C 5.73 23.507 8.614 23.507 11.494 23.487 L 16.119 34.202 L 16.119 23.487 Z M 50.835 23.487 L 56.56 23.487 L 56.56 43.45 C 53.842 43.477 51.134 43.477 48.413 43.45 L 43.276 31.267 L 43.276 43.45 L 37.624 43.45 L 37.624 23.487 C 40.478 23.507 43.361 23.507 46.212 23.487 L 50.835 34.202 L 50.835 23.487 Z M 110.139 23.487 L 115.791 23.487 L 115.791 43.45 C 113.096 43.477 110.387 43.477 107.719 43.45 L 102.506 31.267 L 102.506 43.45 L 96.855 43.45 L 96.855 23.487 C 99.729 23.507 102.613 23.507 105.516 23.487 L 110.139 34.202 L 110.139 23.487 Z M 71.386 28.624 L 71.386 43.45 L 64.12 43.45 L 64.12 28.624 L 59.056 28.624 L 59.056 23.487 L 76.451 23.487 L 76.451 28.624 L 71.386 28.624 Z M 85.845 38.385 L 93.625 38.385 L 93.625 43.449 C 88.632 43.476 83.59 43.476 78.579 43.449 L 78.579 23.487 C 83.59 23.507 88.632 23.507 93.625 23.487 L 93.625 28.624 L 85.845 28.624 L 85.845 30.973 L 93.112 30.973 L 93.112 36.037 L 85.845 36.037 L 85.845 38.385 Z" style="fill: rgb(255, 255, 255);"/>
    <path d="M 150.654 27.743 C 151.847 27.756 152.838 28.263 152.855 33.395 C 152.837 38.567 151.847 39.073 150.654 39.045 C 149.425 39.072 148.435 38.632 148.453 33.395 C 148.436 28.196 149.426 27.756 150.654 27.743 Z M 126.875 39.487 L 128.195 39.487 C 129.74 39.514 131.041 37.444 131.058 35.89 L 131.058 31.56 C 131.04 29.98 130.027 27.58 128.415 27.597 L 126.874 27.597 L 126.874 39.487 L 126.875 39.487 Z M 184.271 25.982 L 184.271 21.063 L 181.041 25.982 L 184.271 25.982 Z M 169.957 25.542 C 171.203 25.532 172.236 26.611 172.232 27.964 C 172.236 29.276 171.203 30.355 169.957 30.386 C 168.693 30.354 167.656 29.276 167.682 27.964 C 167.656 26.611 168.693 25.531 169.957 25.542 Z M 166.582 41.762 C 166.568 41.24 166.358 40.742 165.994 40.368 C 165.566 39.954 165.103 39.757 164.525 39.78 C 163.994 39.748 163.478 39.965 163.13 40.368 C 162.702 40.747 162.505 41.21 162.47 41.762 C 162.505 42.332 162.702 42.817 163.13 43.23 C 163.495 43.609 163.98 43.808 164.525 43.817 C 165.103 43.807 165.566 43.609 165.994 43.23 C 166.359 42.817 166.557 42.332 166.582 41.762 Z" style="fill: rgba(255, 255, 255, 0);"/>
    <path d="M163.719 40.441h.955c.32.02.561.086.734.22.135.13.201.285.219.441-.018.218-.105.395-.293.513-.076.123-.23.189-.441.221a.775.775 0 0 1 .221.146c.012-.002.078.086.146.22a.825.825 0 0 1 .221.294l.221.441h-.367l-.221-.441c-.209-.296-.342-.472-.439-.514-.1-.09-.254-.112-.441-.146h-.221v1.101h-.293v-2.496h-.001z" style="fill: rgb(255, 255, 255);"/>
    <path d="M164.012 40.735v.88h.295a7.07 7.07 0 0 0 .66-.073.353.353 0 0 0 .221-.147c.07-.075.092-.164.072-.221.02-.141-.025-.229-.146-.293-.053-.113-.275-.157-.66-.146h-.442z" style="fill: rgba(255, 255, 255, 0);"/>
  </g>
</svg>